<mxfile host="65bd71144e">
    <diagram id="adpG69OujIaTDi1hqhbL" name="Página-1">
        <mxGraphModel dx="651" dy="379" grid="1" gridSize="10" guides="1" tooltips="1" connect="1" arrows="1" fold="1" page="1" pageScale="1" pageWidth="827" pageHeight="1169" math="0" shadow="0">
            <root>
                <mxCell id="0"/>
                <mxCell id="1" parent="0"/>
                <mxCell id="11" style="edgeStyle=none;html=1;exitX=0;exitY=0.5;exitDx=0;exitDy=0;entryX=0.605;entryY=1.025;entryDx=0;entryDy=0;entryPerimeter=0;" parent="1" source="2" target="4" edge="1">
                    <mxGeometry relative="1" as="geometry"/>
                </mxCell>
                <mxCell id="2" value="APP" style="whiteSpace=wrap;html=1;aspect=fixed;" parent="1" vertex="1">
                    <mxGeometry x="440" y="400" width="70" height="70" as="geometry"/>
                </mxCell>
                <mxCell id="9" value="Container" style="swimlane;" parent="1" vertex="1">
                    <mxGeometry x="40" y="190" width="320" height="250" as="geometry"/>
                </mxCell>
                <mxCell id="4" value="main" style="whiteSpace=wrap;html=1;aspect=fixed;" parent="9" vertex="1">
                    <mxGeometry x="210" y="95" width="75" height="75" as="geometry"/>
                </mxCell>
                <mxCell id="5" value="TOOLBAR" style="rounded=1;whiteSpace=wrap;html=1;" parent="9" vertex="1">
                    <mxGeometry x="10" y="35" width="120" height="60" as="geometry"/>
                </mxCell>
                <mxCell id="7" style="edgeStyle=none;html=1;exitX=0;exitY=0.5;exitDx=0;exitDy=0;entryX=1;entryY=0.5;entryDx=0;entryDy=0;" parent="9" source="4" target="5" edge="1">
                    <mxGeometry relative="1" as="geometry"/>
                </mxCell>
                <mxCell id="6" value="NAVBAR" style="rounded=1;whiteSpace=wrap;html=1;" parent="9" vertex="1">
                    <mxGeometry x="10" y="140" width="120" height="60" as="geometry"/>
                </mxCell>
                <mxCell id="8" style="edgeStyle=none;html=1;exitX=0;exitY=0.5;exitDx=0;exitDy=0;entryX=1;entryY=0.5;entryDx=0;entryDy=0;" parent="9" source="4" target="6" edge="1">
                    <mxGeometry relative="1" as="geometry"/>
                </mxCell>
                <mxCell id="12" value="Clases" style="whiteSpace=wrap;html=1;aspect=fixed;" vertex="1" parent="1">
                    <mxGeometry x="40" y="40" width="75" height="75" as="geometry"/>
                </mxCell>
                <mxCell id="13" value="Cursos" style="whiteSpace=wrap;html=1;aspect=fixed;" vertex="1" parent="1">
                    <mxGeometry x="140" y="40" width="75" height="75" as="geometry"/>
                </mxCell>
                <mxCell id="14" value="Estudiantes" style="whiteSpace=wrap;html=1;aspect=fixed;" vertex="1" parent="1">
                    <mxGeometry x="240" y="40" width="75" height="75" as="geometry"/>
                </mxCell>
                <mxCell id="15" value="Profesores" style="whiteSpace=wrap;html=1;aspect=fixed;" vertex="1" parent="1">
                    <mxGeometry x="338.5" y="40" width="75" height="75" as="geometry"/>
                </mxCell>
                <mxCell id="16" value="Perfil" style="whiteSpace=wrap;html=1;aspect=fixed;" vertex="1" parent="1">
                    <mxGeometry x="435" y="40" width="75" height="75" as="geometry"/>
                </mxCell>
                <mxCell id="17" value="Dashboard" style="whiteSpace=wrap;html=1;aspect=fixed;" vertex="1" parent="1">
                    <mxGeometry x="530" y="40" width="75" height="75" as="geometry"/>
                </mxCell>
                <mxCell id="19" value="Vistas - Paginas " style="swimlane;" vertex="1" parent="1">
                    <mxGeometry x="30" width="610" height="140" as="geometry"/>
                </mxCell>
                <mxCell id="20" style="edgeStyle=none;html=1;exitX=0.5;exitY=0;exitDx=0;exitDy=0;" edge="1" parent="1" source="4">
                    <mxGeometry relative="1" as="geometry">
                        <mxPoint x="320" y="140" as="targetPoint"/>
                    </mxGeometry>
                </mxCell>
            </root>
        </mxGraphModel>
    </diagram>
</mxfile>